<?xml version="1.0" encoding="UTF-8"?> <svg xmlns="http://www.w3.org/2000/svg" xmlns:xlink="http://www.w3.org/1999/xlink" clip-rule="evenodd" fill-rule="evenodd" stroke-linejoin="round" stroke-miterlimit="2" viewBox="0 0 430 89"><linearGradient id="a"><stop offset="0" stop-color="#2aaae2"></stop><stop offset="1" stop-color="#2e3690"></stop></linearGradient><linearGradient id="b" gradientTransform="matrix(-35.1707 -50.9079 50.9079 -35.1707 111.398 88.5069)" gradientUnits="userSpaceOnUse" x1="0" x2="1" xlink:href="#a" y1="0" y2="0"></linearGradient><linearGradient id="c" gradientTransform="matrix(-10.3873 -12.9617 12.9617 -10.3873 89.3986 89.0889)" gradientUnits="userSpaceOnUse" x1="0" x2="1" xlink:href="#a" y1="0" y2="0"></linearGradient><linearGradient id="d"><stop offset="0" stop-color="#d9e028"></stop><stop offset="1" stop-color="#0c9347"></stop></linearGradient><linearGradient id="e" gradientTransform="matrix(-44.9471 59.8502 -59.8502 -44.9471 88.6989 11.8556)" gradientUnits="userSpaceOnUse" x1="0" x2="1" xlink:href="#d" y1="0" y2="0"></linearGradient><linearGradient id="f" gradientTransform="matrix(-55.9414 74.4896 -74.4896 -55.9414 64.6637 9.68345)" gradientUnits="userSpaceOnUse" x1="0" x2="1" xlink:href="#d" y1="0" y2="0"></linearGradient><linearGradient id="g" gradientTransform="matrix(-17.8833 25.6326 -25.6326 -17.8833 84.4949 55.0284)" gradientUnits="userSpaceOnUse" x1="0" x2="1" xlink:href="#d" y1="0" y2="0"></linearGradient><path d="m.565 0h429v89h-429z" fill="none"></path><g fill-rule="nonzero"><path d="m119.8 88.777-47.467-71.519-8.85 13.334 37.94 58.185z" fill="url(#b)"></path><path d="m95.699 88.777-21.697-32.893-9.43 14.786 13.365 18.107z" fill="url(#c)"></path><path d="m24.864 88.777 47.469-71.519 8.851 13.334-37.941 58.185z" fill="url(#e)"></path><path d="m.565 88.777 59.394-88.777 8.329 11.802-51.043 76.975h-16.68z" fill="url(#f)"></path><path d="m53.023 88.777 20.979-32.893 9.554 14.019-12.707 18.874z" fill="url(#g)"></path><g fill="#fff"><path d="m150.51 17.703-4.419 43.788c-.067 4.251 2.091 6.596 6.478 7.029l42.883.051-1.858 19.837h-48.612c-15.329-.772-22.075-9.593-20.235-26.465l4.471-44.24z"></path><path d="m266.557 88.054h-49.514c-14.193-.836-20.192-12.544-18-35.126 2.19-22.58 10.971-34.254 26.34-35.023h48.154l-1.705 17.071-42.684.052c-3.618-.135-5.776.769-6.479 2.711l-1.708 6.024 50.065.051-1.807 16.873-49.664-.202.049 3.97c.136 3.347 1.34 5.156 3.618 5.421l45.142-.051z"></path><path d="m276.954 17.401h22.999l-3.367 33.846c.605-4.316 2.463-7.917 5.574-10.797l20.943-23.049h27.718l-26.315 31.889c-2.106 2.475-2.258 5.021-.45 7.632l20.036 30.933h-28.021l-16.523-24.054c-2.473-3.279-3.512-6.946-3.112-10.996l-3.514 35.05h-23z"></path><path d="m369.5 41.504-.801 7.481h31.184l.651-5.874c1.006-5.424-.567-8.454-4.718-9.088l-18.883.049c-5.024.135-7.499 2.612-7.433 7.432m-24.154 46.351 4.77-47.858c2.212-14.395 10.898-21.908 26.065-22.547l23.8.049c13.796.939 20.272 8.389 19.436 22.349l-4.822 48.105h-18.679l2.158-21.392-31.235-.15-2.107 21.444z"></path><path d="m419.004 23.078h.81v-5.521h1.895v-.681h-4.592v.681h1.887z"></path><path d="m427.782 23.078h.783l-.387-6.202h-1.021l-1.105 3c-.276.782-.496 1.463-.653 2.089h-.027c-.157-.644-.369-1.325-.626-2.089l-1.058-3h-1.022l-.432 6.202h.763l.166-2.659c.055-.929.101-1.969.12-2.742h.018c.175.736.423 1.537.718 2.411l1.003 2.953h.607l1.095-3.009c.313-.855.571-1.628.782-2.355h.028c-.009.773.046 1.813.092 2.678z"></path></g></g></svg> 